<svg width="24" height="22" viewBox="0 0 24 22" fill="none" xmlns="http://www.w3.org/2000/svg">
<path d="M23.6174 17.5332L14.444 1.64443C13.9339 0.760929 13.0203 0.233398 12 0.233398C10.9798 0.233398 10.0661 0.760929 9.55598 1.64443L0.382605 17.5332C-0.127535 18.4168 -0.127535 19.4718 0.382605 20.3553C0.892744 21.2388 1.80634 21.7663 2.82662 21.7663H21.1734C22.1936 21.7663 23.1072 21.2388 23.6174 20.3554C24.1276 19.4718 24.1276 18.4168 23.6174 17.5332ZM22.3997 19.6523C22.1437 20.0957 21.6853 20.3603 21.1734 20.3603H2.82662C2.31465 20.3603 1.85621 20.0957 1.60027 19.6523C1.34434 19.209 1.34434 18.6797 1.60027 18.2363L10.7737 2.3475C11.0297 1.90416 11.4881 1.63951 12 1.63951C12.5119 1.63951 12.9704 1.90416 13.2263 2.3475L22.3997 18.2363C22.6556 18.6797 22.6556 19.209 22.3997 19.6523Z" fill="#DF3737"/>
<path d="M12.7029 7.25049H11.2969V14.2809H12.7029V7.25049Z" fill="#DF3737"/>
<path d="M12 15.687C11.4831 15.687 11.0626 16.1075 11.0626 16.6244C11.0626 17.1413 11.4831 17.5618 12 17.5618C12.5169 17.5618 12.9374 17.1413 12.9374 16.6244C12.9374 16.1075 12.5169 15.687 12 15.687Z" fill="#DF3737"/>
</svg>
